<svg width="306" height="30" viewBox="0 0 306 30" fill="none" xmlns="http://www.w3.org/2000/svg">
<path d="M3.01537 25.161L3.01537 9.83725L0 9.83725L0 28.0509L11.721 28.0509L11.721 25.161L3.01537 25.161Z" fill="black"/>
<path d="M17.2164 12.6786L26.6516 12.6786L26.6516 9.83725L14.201 9.83725L14.201 28.0509L26.6516 28.0509L26.6516 25.1853L17.2164 25.1853L17.2164 20.3283L25.2169 20.3283L25.2169 17.5355L17.2164 17.5355L17.2164 12.6786Z" fill="black"/>
<path d="M35.5376 9.83725L27.8532 28.0509L31.0145 28.0509L33.1544 22.9268L40.9847 22.9268L43.1246 28.0509L46.2859 28.0509L38.6259 9.83725L35.5376 9.83725ZM39.8174 20.134L34.3217 20.134L37.0696 13.5528L39.8174 20.134Z" fill="black"/>
<path d="M57.8101 20.9111C60.4607 20.3526 62.3332 18.1427 62.3332 15.447C62.3332 12.3386 59.8528 9.83725 56.497 9.83725L48.3263 9.83725L48.3263 28.0509L51.3417 28.0509L51.3417 21.0568L54.2354 21.0568L59.5123 28.0509L63.2086 28.0509L57.8101 20.9111ZM56.3754 12.6786C58.1262 12.6786 59.3178 13.8685 59.3178 15.447C59.3178 17.0498 58.1262 18.2398 56.3754 18.2398L51.3417 18.2398L51.3417 12.6786L56.3754 12.6786Z" fill="black"/>
<path d="M68.9386 14.3057L78.1793 28.0509L81.7296 28.0509L81.7296 9.83725L78.7142 9.83725L78.7142 23.6067L69.425 9.83725L65.9232 9.83725L65.9232 28.0509L68.9386 28.0509L68.9386 14.3057Z" fill="black"/>
<path d="M100.917 10.9418L112.93 28.8118L117.546 28.8118L117.546 5.13248L113.626 5.13248L113.626 23.0341L101.549 5.13248L96.9964 5.13248L96.9964 28.8118L100.917 28.8118L100.917 10.9418Z" fill="black"/>
<path d="M126.913 8.82646L139.179 8.82646L139.179 5.13248L122.992 5.13248L122.992 28.8118L139.179 28.8118L139.179 25.0863L126.913 25.0863L126.913 18.7718L137.314 18.7718L137.314 15.1409L126.913 15.1409L126.913 8.82646Z" fill="black"/>
<path d="M150.732 5.13248L140.741 28.8118L144.851 28.8118L147.633 22.15L157.813 22.15L160.596 28.8118L164.706 28.8118L154.747 5.13248L150.732 5.13248ZM156.296 18.5192L149.151 18.5192L152.723 9.96306L156.296 18.5192Z" fill="black"/>
<path d="M179.688 19.5295C183.134 18.8034 185.568 15.9303 185.568 12.4257C185.568 8.38444 182.344 5.13248 177.981 5.13248L167.358 5.13248L167.358 28.8118L171.278 28.8118L171.278 19.719L175.041 19.719L181.901 28.8118L186.707 28.8118L179.688 19.5295ZM177.823 8.82646C180.099 8.82646 181.648 10.3735 181.648 12.4257C181.648 14.5095 180.099 16.0565 177.823 16.0565L171.278 16.0565L171.278 8.82646L177.823 8.82646Z" fill="black"/>
<path d="M213.202 30.0002C219.779 30.0002 225.382 25.7645 227.444 19.9355L223.008 18.1479C221.685 22.3837 217.872 25.3759 213.202 25.3759C207.482 25.3759 202.891 20.7515 202.891 15.0002C202.891 9.28781 207.482 4.6246 213.202 4.6246C217.872 4.6246 221.685 7.61683 223.008 11.8526L227.406 10.065C225.382 4.19713 219.779 0.000244141 213.202 0.000244141C204.836 0.000244141 198.027 6.7619 198.027 15.0002C198.027 23.2386 204.836 30.0002 213.202 30.0002Z" fill="black"/>
<path d="M236.671 24.9484L236.671 0.427704L231.845 0.427704L231.845 29.5728L250.601 29.5728L250.601 24.9484L236.671 24.9484Z" fill="black"/>
<path d="M264.796 30.0002C271.645 30.0002 276.665 24.9096 276.665 17.9925L276.665 0.427704L271.839 0.427704L271.839 18.0313C271.839 22.2671 268.882 25.3759 264.796 25.3759C260.672 25.3759 257.714 22.2671 257.714 18.0313L257.714 0.427704L252.889 0.427704L252.889 17.9925C252.889 24.9096 257.948 30.0002 264.796 30.0002Z" fill="black"/>
<path d="M301.903 14.7671C303.849 13.407 305.055 11.2308 305.055 8.66605C305.055 4.08056 301.281 0.427704 296.611 0.427704L283.031 0.427704L283.031 29.5728L297.35 29.5728C302.098 29.5728 305.833 25.9199 305.833 21.3344C305.833 18.4199 304.316 16.0495 301.903 14.7671ZM300.269 8.89921C300.269 11.1531 298.596 12.9018 296.417 12.9018L287.778 12.9018L287.778 4.85776L296.417 4.85776C298.596 4.85776 300.269 6.64532 300.269 8.89921ZM287.778 25.1427L287.778 17.0987L297.195 17.0987C299.374 17.0987 301.047 18.8474 301.047 21.1013C301.047 23.3552 299.374 25.1427 297.195 25.1427L287.778 25.1427Z" fill="black"/>
</svg>
