<svg width="80" height="35" viewBox="0 0 80 35" fill="none" xmlns="http://www.w3.org/2000/svg">
<path d="M3.50186 29.3542L3.50186 11.4765L0 11.4765L0 32.7257L13.6121 32.7257L13.6121 29.3542L3.50186 29.3542Z" fill="black"/>
<path d="M22.3078 12.7652L36.2597 33.6135L41.6202 33.6135L41.6202 5.9876L37.0674 5.9876L37.0674 26.8728L23.0421 5.9876L17.755 5.9876L17.755 33.6135L22.3078 33.6135L22.3078 12.7652Z" fill="black"/>
<path d="M63.4603 35C71.0975 35 77.6049 30.0583 80 23.2578L74.8483 21.1723C73.3118 26.114 68.8831 29.6049 63.4603 29.6049C56.8173 29.6049 51.4848 24.2098 51.4848 17.5C51.4848 10.8355 56.8173 5.39508 63.4603 5.39508C68.8831 5.39508 73.3118 8.88601 74.8483 13.8277L79.9548 11.7422C77.6049 4.89637 71.0975 0 63.4603 0C53.7444 0 45.836 7.8886 45.836 17.5C45.836 27.1114 53.7444 35 63.4603 35Z" fill="black"/>
</svg>
